<?xml version="1.0" encoding="UTF-8"?><svg id="_レイヤー_2" xmlns="http://www.w3.org/2000/svg" xmlns:xlink="http://www.w3.org/1999/xlink" viewBox="0 0 396.05 113.2"><defs><style>.cls-1{fill:#fff;}.cls-2{fill:#c4ccdb;}.cls-3{fill:#076591;}.cls-4{clip-path:url(#clippath);}.cls-5{fill:none;}</style><clipPath id="clippath"><polygon class="cls-5" points="88.6 75.09 88.6 38.14 56.6 19.67 24.6 38.14 24.6 75.09 56.6 93.57 88.6 75.09"/></clipPath></defs><g id="_レイヤー_1-2"><g><circle class="cls-1" cx="56.6" cy="56.6" r="56.6"/><g><path class="cls-3" d="M185.13,66.34h-18.11l-5.31,19.78h-20.48l5.31-19.78h-20.99l4.48-16.7h59.58l-4.48,16.7Zm-53.95-21.25l4.48-16.7h59.58l-4.48,16.7h-59.58Z"/><path class="cls-3" d="M257.9,48.62l-4.48,16.7h-27.65l-1.09,4.03,27.9-.06-4.48,16.7-48.32,.13,5.5-20.8h-11.46l4.48-16.7h11.46l.9-3.52h-11.33l4.48-16.7h59.58l-4.48,16.7h-27.78l-.9,3.52h27.65Z"/><path class="cls-3" d="M277.1,86.12h-20.48l15.3-57.6h20.48l-5.63,21.12h39.17l-4.48,16.7h-39.1l-5.25,19.78Z"/><path class="cls-3" d="M324.78,86.12l15.3-57.6h20.48l-15.3,57.6h-20.48Zm59.65,0h-30.66l15.3-57.6h20.48l-10.88,40.9h10.24l-4.48,16.7Z"/></g><g><path class="cls-1" d="M165.54,91.12h-30.83l5.31-19.78h-20.99l5.7-21.25h-.07l7.16-26.7h69.94l-5.7,21.25h.07l-7.16,26.7h-18.11l-5.31,19.78Zm-17.79-10h10.13l5.31-19.78h18.11l1.8-6.7h-49.23l-1.8,6.7h20.99l-5.31,19.78Zm-10.05-41.02h49.23l1.8-6.7h-49.23l-1.8,6.7Z"/><path class="cls-1" d="M193.29,91.14l5.51-20.82h-11.48l7.16-26.7h.08l5.42-20.22h69.94l-7.16,26.7h-.08l-3.8,14.18h.23s-7.16,26.71-7.16,26.71l-58.66,.16Zm7.06-30.82h11.43l-5.5,20.78,37.98-.1,1.8-6.7-27.91,.06,3.79-14.05h27.64l1.8-6.7h-27.56l3.44-13.52h27.83l1.8-6.7h-49.23l-1.8,6.7h11.24l-3.44,13.52h-11.51l-1.8,6.7Z"/><path class="cls-1" d="M280.94,91.12h-30.83l17.95-67.6h30.83l-5.63,21.12h39.18l-7.16,26.7h-39.09l-5.25,19.78Zm-17.83-10h10.13l5.25-19.78h39.11l1.8-6.7h-39.16l5.63-21.12h-10.13l-12.64,47.6Z"/><path class="cls-1" d="M388.26,91.12h-69.98l17.95-67.6h59.82l-10.88,40.9h10.25l-7.16,26.7Zm-27.99-10h20.32l1.8-6.7h-10.23l10.88-40.9h-10.13l-12.64,47.6Zm-28.99,0h10.13l12.64-47.6h-10.13l-12.64,47.6Z"/></g><g><path class="cls-3" d="M185.13,66.34h-18.11l-5.31,19.78h-20.48l5.31-19.78h-20.99l4.48-16.7h59.58l-4.48,16.7Zm-53.95-21.25l4.48-16.7h59.58l-4.48,16.7h-59.58Z"/><path class="cls-3" d="M257.9,48.62l-4.48,16.7h-27.65l-1.09,4.03,27.9-.06-4.48,16.7-48.32,.13,5.5-20.8h-11.46l4.48-16.7h11.46l.9-3.52h-11.33l4.48-16.7h59.58l-4.48,16.7h-27.78l-.9,3.52h27.65Z"/><path class="cls-3" d="M277.1,86.12h-20.48l15.3-57.6h20.48l-5.63,21.12h39.17l-4.48,16.7h-39.1l-5.25,19.78Z"/><path class="cls-3" d="M324.78,86.12l15.3-57.6h20.48l-15.3,57.6h-20.48Zm59.65,0h-30.66l15.3-57.6h20.48l-10.88,40.9h10.24l-4.48,16.7Z"/></g><g><g><polygon class="cls-2" points="88.6 75.09 88.6 38.14 56.6 19.67 24.6 38.14 24.6 75.09 56.6 93.57 88.6 75.09"/><g class="cls-4"><g><g><path class="cls-1" d="M43.78,56.64v-9.99c0-1.65-1.32-4.12-4.11-4.12s-4.11,2.53-4.11,4.17v9.94s0,12.72,0,12.72c0,4.48,1.18,8.5,4.25,11.3v22.1s25.03-8.01,25.03-8.01v-13.01s3.98-2.04,6.54-6.02c2.56-3.97,9.59-14.03,9.59-14.03,1.19-2.07,1.02-4.73-.74-6.08-1.76-1.35-4.37-.95-5.77,.84l-5.02,5.89v-5.71h0l.02-17.08c0-2.4-1.94-4.34-4.34-4.34s-4.34,1.94-4.34,4.34"/><path class="cls-3" d="M39.84,105.11c-.49,0-.98-.15-1.38-.45-.61-.44-.96-1.15-.96-1.9v-21.12c-2.83-2.99-4.26-7.12-4.26-12.29v-22.66c0-1.43,.56-3,1.52-4.18,1.22-1.51,2.97-2.34,4.92-2.34,3.99,0,6.45,3.36,6.45,6.46v9.99c0,1.3-1.05,2.35-2.34,2.35h0c-1.3,0-2.35-1.05-2.35-2.35v-9.99c0-.29-.31-1.77-1.76-1.77-.54,0-.94,.19-1.27,.6-.36,.44-.48,.97-.48,1.22v22.66c.01,4.24,1.18,7.46,3.49,9.57,.49,.44,.77,1.08,.77,1.74v18.88s20.33-6.51,20.33-6.51v-11.3c0-.88,.49-1.69,1.28-2.09,.03-.01,3.47-1.84,5.64-5.2,2.45-3.81,8.81-12.92,9.57-14.01,.6-1.11,.53-2.42-.18-2.96-.72-.55-1.88-.36-2.48,.42l-5.09,5.98c-.64,.75-1.67,1.02-2.6,.68-.92-.34-1.54-1.22-1.54-2.2v-5.71s.02-17.08,.02-17.08c0-1.09-.89-1.99-1.99-1.99s-1.99,.89-1.99,1.99c0,1.3-1.05,2.35-2.35,2.35s-2.35-1.05-2.35-2.35c0-3.69,3-6.69,6.69-6.69s6.69,3,6.69,6.69l-.02,16.4,.89-1.04c2.13-2.75,6.19-3.32,8.98-1.19,2.61,2,3.19,5.92,1.35,9.12-.03,.06-.07,.12-.11,.17-.07,.1-7.03,10.07-9.54,13.96-1.95,3.03-4.61,5.06-6.16,6.07v11.68c0,1.02-.66,1.93-1.63,2.24l-25.02,8.01c-.23,.08-.48,.11-.72,.11Z"/></g><g><path class="cls-1" d="M43.78,55.65v-16.23c0-2.22,1.87-4.01,4.17-4.01s4.17,1.8,4.17,4.01v16.8"/><path class="cls-3" d="M52.12,58.57c-1.3,0-2.35-1.05-2.35-2.35v-16.8c0-.92-.82-1.66-1.82-1.66s-1.82,.75-1.82,1.66v16.23c0,1.3-1.05,2.35-2.35,2.35s-2.35-1.05-2.35-2.35v-16.23c0-3.51,2.93-6.36,6.52-6.36s6.52,2.85,6.52,6.36v16.8c0,1.3-1.05,2.35-2.35,2.35Z"/></g><g><path class="cls-1" d="M52.11,55.17v-18.23c0-2.22,1.94-4.01,4.34-4.01s4.34,1.8,4.34,4.01v18.7"/><path class="cls-3" d="M60.79,58c-1.3,0-2.35-1.05-2.35-2.35v-18.71c0-.92-.89-1.66-1.99-1.66s-1.99,.75-1.99,1.66v18.23c0,1.3-1.05,2.35-2.35,2.35s-2.35-1.05-2.35-2.35v-18.23c0-3.51,3-6.36,6.69-6.36s6.69,2.85,6.69,6.36v18.71c0,1.3-1.05,2.35-2.35,2.35Z"/></g></g></g></g><g><path class="cls-3" d="M24.6,32.37L69.46,6.47c-4.11-1.05-8.42-1.61-12.86-1.61-12.08,0-23.19,4.15-32,11.09v16.42Z"/><path class="cls-3" d="M19.6,72.2V20.44C10.48,29.77,4.84,42.53,4.84,56.62c0,2.5,.19,4.96,.53,7.37l14.23,8.22Z"/><path class="cls-3" d="M61.6,16.78l44.84,25.89c-4.35-15.56-15.78-28.16-30.61-34.1l-14.23,8.21Z"/><path class="cls-3" d="M93.61,41.03v51.76c9.12-9.33,14.75-22.09,14.75-36.17,0-2.51-.19-4.97-.53-7.38l-14.22-8.21Z"/><path class="cls-3" d="M51.6,96.45L6.76,70.56c4.35,15.57,15.78,28.17,30.61,34.11l14.23-8.22Z"/><path class="cls-3" d="M88.61,80.86l-44.87,25.9c4.11,1.05,8.42,1.61,12.86,1.61,12.09,0,23.2-4.15,32.01-11.1v-16.42Z"/></g></g></g></g></svg>